<svg id="Capa_1" enable-background="new 0 0 512 512" height="24" viewBox="0 0 512 512" width="24" xmlns="http://www.w3.org/2000/svg"><g><path d="m495.484 239.484h-470.484c-9.122 0-16.516 7.395-16.516 16.516v140.817c0 9.122 7.395 16.516 16.516 16.516h470.484l16.516-8.688v-148.645c0-9.122-7.395-16.516-16.516-16.516z" fill="#f2f2f6"/><path d="m16.516 355.097v-107.597l-16.516 8.5v148.645c0 9.122 7.395 16.516 16.516 16.516h478.968c9.121 0 16.516-7.395 16.516-16.516h-445.935c-27.365 0-49.549-22.183-49.549-49.548z" fill="#e1e1e6"/><path d="m495.484 90.839h-478.968l-8.516 16.516v130.645l8.516 18h495.484v-148.645c0-9.122-7.395-16.516-16.516-16.516z" fill="#db4655"/><path d="m0 107.355v148.645h16.516v-165.161c-9.121 0-16.516 7.394-16.516 16.516z" fill="#bd4150"/></g></svg>