<?xml version="1.0" standalone="no"?>
<!DOCTYPE svg PUBLIC "-//W3C//DTD SVG 20010904//EN"
 "http://www.w3.org/TR/2001/REC-SVG-20010904/DTD/svg10.dtd">
<svg version="1.0" xmlns="http://www.w3.org/2000/svg"
 width="1500.000000pt" height="1500.000000pt" viewBox="0 0 1500.000000 1500.000000"
 preserveAspectRatio="xMidYMid meet">
<metadata>
Created by potrace 1.14, written by Peter Selinger 2001-2017
</metadata>
<g transform="translate(0.000000,1500.000000) scale(0.100000,-0.100000)"
fill="#000000" stroke="none">
<path d="M0 7500 l0 -7500 7500 0 7500 0 0 7500 0 7500 -7500 0 -7500 0 0
-7500z m4100 -10 l0 -4110 -830 0 -830 0 0 4110 0 4110 830 0 830 0 0 -4110z
m4033 3978 c-47 -73 -594 -908 -1215 -1855 -620 -947 -1128 -1725 -1128 -1728
0 -4 592 -1015 1316 -2248 724 -1233 1319 -2245 1321 -2250 2 -4 -409 -7 -914
-7 l-918 0 -1218 2193 c-669 1206 -1217 2196 -1217 2199 0 5 2141 3433 2363
3786 l27 42 835 0 834 0 -86 -132z m1744 -780 c-8 -13 -227 -324 -486 -693
l-472 -670 1830 -3 1831 -2 0 -470 0 -470 -2164 0 -2164 0 -143 -202 c-79
-112 -143 -210 -143 -218 0 -9 62 -113 138 -233 l138 -217 2169 0 2169 0 0
-470 0 -470 -1868 -2 -1868 -3 353 -555 c194 -305 387 -608 428 -672 l74 -118
-542 0 -542 0 -86 138 c-48 75 -425 676 -838 1336 l-752 1199 39 56 c22 31
457 659 967 1396 510 737 932 1346 938 1353 7 9 121 12 509 12 l500 0 -15 -22z
m2703 -6145 l0 -258 -2080 0 -2080 0 0 258 0 257 2080 0 2080 0 0 -257z"/>
</g>
</svg>
